<mxfile host="app.diagrams.net" modified="2024-04-26T04:39:56.120Z" agent="Mozilla/5.0 (Windows NT 10.0; Win64; x64) AppleWebKit/537.36 (KHTML, like Gecko) Chrome/124.0.0.0 Safari/537.36" version="24.3.0" etag="hZmN-VlzHO8-GJ23Skdr" type="github">
  <diagram name="Page-1" id="5bFAorU3B1HsvQdMwneg">
    <mxGraphModel>
      <root>
        <mxCell id="0" />
        <mxCell id="1" parent="0" />
      </root>
    </mxGraphModel>
  </diagram>
</mxfile>
